<svg width="412" height="412" viewBox="0 0 412 412" fill="none" xmlns="http://www.w3.org/2000/svg">
<path fill-rule="evenodd" clip-rule="evenodd" d="M244.286 361.228C244.585 361.726 244.57 362.351 244.247 362.833L236.896 373.833C236.649 374.203 236.251 374.444 235.809 374.491C235.367 374.539 234.927 374.388 234.607 374.08L224.959 364.772C224.538 364.366 224.391 363.753 224.583 363.2C224.775 362.648 225.27 362.258 225.851 362.2L242.851 360.507C243.429 360.45 243.988 360.731 244.286 361.228ZM229.375 364.864L235.399 370.675L239.988 363.807L229.375 364.864Z" fill="#DCDADA"/>
<path fill-rule="evenodd" clip-rule="evenodd" d="M20.4834 138.278C20.6063 139.097 20.0418 139.861 19.2225 139.983L9.22252 141.483C8.40325 141.606 7.63949 141.042 7.5166 140.223C7.39371 139.403 7.95823 138.64 8.7775 138.517L18.7775 137.017C19.5968 136.894 20.3605 137.458 20.4834 138.278Z" fill="#E8E5E5"/>
<path fill-rule="evenodd" clip-rule="evenodd" d="M113.636 235.521C114.177 236.148 114.107 237.095 113.479 237.636L98.9794 250.136C98.3519 250.677 97.4048 250.607 96.8639 249.979C96.323 249.352 96.3931 248.405 97.0206 247.864L111.521 235.364C112.148 234.823 113.095 234.893 113.636 235.521Z" fill="#DCDADA"/>
<path fill-rule="evenodd" clip-rule="evenodd" d="M327.721 107.026C328.535 106.872 329.32 107.407 329.474 108.221L332.974 126.721C333.128 127.535 332.593 128.32 331.779 128.474C330.965 128.628 330.18 128.093 330.026 127.279L326.526 108.779C326.372 107.965 326.907 107.18 327.721 107.026Z" fill="#E7E5E5"/>
<path fill-rule="evenodd" clip-rule="evenodd" d="M217.764 49.1502C218.233 48.4675 219.167 48.2946 219.85 48.7639L235.85 59.7639C236.532 60.2333 236.705 61.1671 236.236 61.8498C235.767 62.5324 234.833 62.7054 234.15 62.2361L218.15 51.2361C217.468 50.7667 217.295 49.8329 217.764 49.1502Z" fill="#D8D5D5"/>
<path fill-rule="evenodd" clip-rule="evenodd" d="M69.5 9C70.3284 9 71 9.67157 71 10.5V17.5C71 18.3284 70.3284 19 69.5 19C68.6716 19 68 18.3284 68 17.5V10.5C68 9.67157 68.6716 9 69.5 9Z" fill="#E7E5E5"/>
<path fill-rule="evenodd" clip-rule="evenodd" d="M136 39C140.418 39 144 35.4183 144 31C144 26.5817 140.418 23 136 23C131.582 23 128 26.5817 128 31C128 35.4183 131.582 39 136 39ZM136 42C142.075 42 147 37.0751 147 31C147 24.9249 142.075 20 136 20C129.925 20 125 24.9249 125 31C125 37.0751 129.925 42 136 42Z" fill="#E0DDDD"/>
<path fill-rule="evenodd" clip-rule="evenodd" d="M382.047 171.037C377.513 172.252 374.822 176.913 376.037 181.447C376.251 182.248 375.777 183.07 374.976 183.285C374.176 183.499 373.354 183.024 373.139 182.224C371.495 176.089 375.136 169.783 381.271 168.139C387.406 166.495 393.712 170.136 395.356 176.271C395.57 177.071 395.095 177.894 394.295 178.108C393.495 178.323 392.672 177.848 392.458 177.047C391.243 172.513 386.582 169.822 382.047 171.037Z" fill="#D8D5D5"/>
<path fill-rule="evenodd" clip-rule="evenodd" d="M352.391 24.552C353.046 24.7289 353.5 25.3224 353.5 26V50C353.5 50.8284 352.828 51.5 352 51.5H338C337.463 51.5 336.967 51.2128 336.699 50.7471C336.432 50.2814 336.434 49.7081 336.704 49.2442L350.704 25.2442C351.046 24.6589 351.737 24.3751 352.391 24.552ZM340.612 48.5H350.5V31.5484L340.612 48.5Z" fill="#DCDADA"/>
<path fill-rule="evenodd" clip-rule="evenodd" d="M191 252.5C191.828 252.5 192.5 253.172 192.5 254V272C192.5 272.828 191.828 273.5 191 273.5H173C172.172 273.5 171.5 272.828 171.5 272C171.5 271.172 172.172 270.5 173 270.5H189.5V254C189.5 253.172 190.172 252.5 191 252.5Z" fill="#E0DDDD"/>
<path d="M154 104C154 106.209 152.209 108 150 108C147.791 108 146 106.209 146 104C146 101.791 147.791 100 150 100C152.209 100 154 101.791 154 104Z" fill="#E8E5E5"/>
<path fill-rule="evenodd" clip-rule="evenodd" d="M91.7623 162.943C91.9528 163.933 91.6333 164.953 90.9117 165.657L79.3279 176.962C78.4688 177.8 77.1926 178.046 76.0837 177.586C74.9748 177.126 74.2467 176.05 74.2328 174.85L74.0449 158.665C74.0331 157.657 74.5287 156.71 75.3638 156.145C76.199 155.58 77.2621 155.472 78.1935 155.859L89.9652 160.739C90.8966 161.125 91.5718 161.953 91.7623 162.943ZM88.8164 163.51L77.0446 158.63L77.2326 174.815L88.8164 163.51Z" fill="#E7E5E5"/>
<path fill-rule="evenodd" clip-rule="evenodd" d="M227.203 139.666C226.315 138.694 226.165 137.255 226.833 136.12L232.455 126.578C232.938 125.757 233.782 125.215 234.728 125.116C235.675 125.018 236.613 125.374 237.255 126.077L244.797 134.334C245.685 135.307 245.835 136.745 245.167 137.88L239.545 147.423C239.062 148.243 238.218 148.785 237.272 148.884C236.325 148.982 235.387 148.626 234.745 147.923L227.203 139.666ZM229.418 137.643L235.04 128.1L242.582 136.357L236.96 145.9L229.418 137.643Z" fill="#E0DDDD"/>
<path d="M172.863 190.813C173.221 189.767 174.358 189.21 175.403 189.568L179.187 190.863C180.233 191.221 180.79 192.358 180.432 193.403L179.137 197.187C178.779 198.233 177.642 198.79 176.597 198.432L172.813 197.137C171.768 196.779 171.21 195.642 171.568 194.597L172.863 190.813Z" fill="#D8D5D5"/>
<path d="M298.105 190.404C297.787 191.105 296.829 191.198 296.381 190.572L294.366 187.755C293.918 187.129 294.315 186.253 295.082 186.178L298.529 185.841C299.295 185.766 299.855 186.549 299.537 187.25L298.105 190.404Z" fill="#E8E5E5"/>
<path fill-rule="evenodd" clip-rule="evenodd" d="M43.9218 282.69C43.7162 281.046 44.8823 279.547 46.5264 279.341L50.4955 278.845C52.1395 278.639 53.6389 279.805 53.8445 281.449L56.0782 299.31C56.2838 300.954 55.1178 302.453 53.4737 302.659L49.5046 303.155C47.8606 303.361 46.3611 302.195 46.1555 300.551L43.9218 282.69ZM50.8677 281.821L53.1014 299.682L49.1323 300.179L46.8987 282.318L50.8677 281.821Z" fill="#E8E5E5"/>
<path d="M23 377C23 378.657 21.6569 380 20 380C18.3431 380 17 378.657 17 377C17 375.343 18.3431 374 20 374C21.6569 374 23 375.343 23 377Z" fill="#D8D5D5"/>
<path fill-rule="evenodd" clip-rule="evenodd" d="M363 371C365.209 371 367 369.209 367 367C367 364.791 365.209 363 363 363C360.791 363 359 364.791 359 367C359 369.209 360.791 371 363 371ZM363 374C366.866 374 370 370.866 370 367C370 363.134 366.866 360 363 360C359.134 360 356 363.134 356 367C356 370.866 359.134 374 363 374Z" fill="#E0DDDD"/>
<path fill-rule="evenodd" clip-rule="evenodd" d="M325.901 322.979C326.465 322.372 327.414 322.337 328.021 322.901L342.021 335.901C342.628 336.465 342.663 337.414 342.099 338.021C341.535 338.628 340.586 338.663 339.979 338.099L325.979 325.099C325.372 324.535 325.337 323.586 325.901 322.979Z" fill="#D8D5D5"/>
<path fill-rule="evenodd" clip-rule="evenodd" d="M292.459 249.708C292.618 249.19 293.043 248.798 293.573 248.682L302.365 246.758C302.894 246.642 303.445 246.82 303.805 247.225L309.912 254.078C310.26 254.469 310.379 255.014 310.226 255.515L307.541 264.292C307.382 264.81 306.956 265.202 306.427 265.318L297.635 267.243C297.106 267.358 296.555 267.18 296.195 266.775L290.088 259.922C289.74 259.531 289.62 258.986 289.774 258.486L292.459 249.708ZM295.071 251.425L292.889 258.556L297.851 264.124L304.929 262.575L307.111 255.444L302.149 249.876L295.071 251.425Z" fill="#DCDADA"/>
<path d="M244.063 296.8C244.231 296.013 245.212 295.737 245.766 296.32L247.773 298.431C248.292 298.977 248.045 299.878 247.32 300.083L244.704 300.82C243.979 301.025 243.297 300.385 243.455 299.649L244.063 296.8Z" fill="#E7E5E5"/>
<path d="M129.439 340.316C129.223 339.669 129.705 339 130.387 339H134.279C134.71 339 135.092 339.275 135.228 339.684L136.561 343.684C136.777 344.331 136.295 345 135.613 345H131.721C131.29 345 130.908 344.725 130.772 344.316L129.439 340.316Z" fill="#E7E5E5"/>
<path fill-rule="evenodd" clip-rule="evenodd" d="M390.033 253.912C390.441 254.3 390.598 254.885 390.439 255.425L383.939 277.425C383.736 278.111 383.076 278.559 382.363 278.494C381.651 278.429 381.083 277.869 381.008 277.157L379.008 258.157C378.936 257.467 379.346 256.817 380.001 256.586L388.501 253.586C389.032 253.398 389.624 253.524 390.033 253.912ZM382.116 259.02L383.201 269.333L386.729 257.392L382.116 259.02Z" fill="#E7E5E5"/>
<path fill-rule="evenodd" clip-rule="evenodd" d="M18.2832 76.2994C17.7452 75.6695 17.8197 74.7226 18.4496 74.1846L27.7006 66.283C28.3305 65.745 29.2773 65.8195 29.8154 66.4494L37.717 75.7004C38.255 76.3303 38.1805 77.2771 37.5506 77.8152L28.2996 85.7167C27.6697 86.2548 26.7229 86.1803 26.1848 85.5504L18.2832 76.2994ZM21.5386 75.4916L27.4918 82.4614L34.4616 76.5082L28.5084 69.5384L21.5386 75.4916Z" fill="#DCDADA"/>
</svg>
