<svg width="1280" height="640" viewBox="0 0 1280 640" fill="none" xmlns="http://www.w3.org/2000/svg">
<g clip-path="url(#clip0_1_116)">
<rect width="1280" height="640" fill="white"/>
<path d="M907.747 577.872C907.747 612.043 880.046 639.744 845.875 639.744C811.704 639.744 784 612.043 784 577.872C784 543.701 811.704 516 845.875 516C880.046 516 907.747 543.701 907.747 577.872Z" fill="#F277C6"/>
<path d="M1203.75 61.8719C1203.75 96.0428 1176.05 123.744 1141.87 123.744C1107.7 123.744 1080 96.0428 1080 61.8719C1080 27.701 1107.7 5.35708e-05 1141.87 5.35708e-05C1176.05 5.35708e-05 1203.75 27.701 1203.75 61.8719Z" fill="#F3EA5D"/>
<path d="M726.747 257.872C726.747 292.043 699.046 319.744 664.875 319.744C630.704 319.744 603 292.043 603 257.872C603 223.701 630.704 196 664.875 196C699.046 196 726.747 223.701 726.747 257.872Z" fill="#05C3DD"/>
<path d="M1204.13 588.56C1204.13 594.393 1199.39 599.122 1193.56 599.122C1187.73 599.122 1183 594.393 1183 588.56C1183 582.729 1187.73 578 1193.56 578C1199.39 578 1204.13 582.729 1204.13 588.56Z" fill="#7D55C7"/>
<path d="M1250.13 598.56C1250.13 604.393 1245.4 609.12 1239.57 609.12C1233.73 609.12 1229 604.393 1229 598.56C1229 592.726 1233.73 588 1239.57 588C1245.4 588 1250.13 592.726 1250.13 598.56Z" fill="#F3EA5D"/>
<path d="M727.125 55.5598C727.125 61.3934 722.393 66.1224 716.56 66.1224C710.726 66.1224 706 61.3934 706 55.5598C706 49.7291 710.726 45 716.56 45C722.393 45 727.125 49.7291 727.125 55.5598Z" fill="#05C3DD"/>
<path d="M794.125 28.5598C794.125 34.3934 789.399 39.1196 783.566 39.1196C777.732 39.1196 773 34.3934 773 28.5598C773 22.7263 777.732 18 783.566 18C789.399 18 794.125 22.7263 794.125 28.5598Z" fill="#F3EA5D"/>
<path d="M1243.35 139.56C1243.35 145.393 1238.63 150.122 1232.79 150.122C1226.96 150.122 1222.23 145.393 1222.23 139.56C1222.23 133.726 1226.96 129 1232.79 129C1238.63 129 1243.35 133.726 1243.35 139.56Z" fill="#05C3DD"/>
<path d="M966.122 482.642C966.122 488.476 961.393 493.205 955.56 493.205C949.726 493.205 945 488.476 945 482.642C945 476.808 949.726 472.082 955.56 472.082C961.393 472.082 966.122 476.808 966.122 482.642Z" fill="#F277C6"/>
<path d="M684.122 365.56C684.122 371.393 679.393 376.122 673.56 376.122C667.726 376.122 663 371.393 663 365.56C663 359.726 667.726 355 673.56 355C679.393 355 684.122 359.726 684.122 365.56Z" fill="#4D49BE"/>
<circle cx="881.024" cy="293.024" r="100" transform="rotate(-3.21414 881.024 293.024)" fill="#F3EA5D"/>
<path d="M883.653 336.352C866.452 337.318 854.26 329.726 846.76 321.87C844.259 319.252 840.35 319.471 837.724 321.59C835.119 324.101 835.34 328.03 837.449 330.67C847.015 340.381 862.466 350.155 884.359 348.925C905.862 347.718 920.122 336.275 928.54 325.555C930.34 322.695 930.12 318.766 927.251 316.562C924.404 314.751 920.494 314.971 918.303 317.853C912.12 326.477 900.464 335.408 883.653 336.352Z" fill="#4D49BE"/>
<path d="M848.318 265.815C843.236 266.101 839.178 270.664 839.465 275.772C839.774 281.272 844.295 284.96 849.377 284.674C854.459 284.389 858.539 280.219 858.23 274.718C857.943 269.61 853.4 265.53 848.318 265.815Z" fill="#4D49BE"/>
<path d="M920.782 271.205C920.495 266.098 915.952 262.017 910.87 262.303C905.787 262.588 901.73 267.151 902.016 272.259C902.325 277.76 906.846 281.447 911.929 281.162C917.011 280.876 921.091 276.706 920.782 271.205Z" fill="#4D49BE"/>
<circle cx="806.019" cy="453.019" r="100" transform="rotate(-8.59728 806.019 453.019)" fill="#7D55C7"/>
<path d="M812.702 495.91C795.667 498.485 782.816 492.07 774.612 484.953C771.877 482.58 768.006 483.166 765.59 485.521C763.232 488.265 763.821 492.156 766.168 494.587C776.603 503.357 792.903 511.639 814.584 508.361C835.878 505.141 849.002 492.411 856.378 480.949C857.902 477.932 857.313 474.041 854.25 472.116C851.246 470.581 847.374 471.166 845.463 474.241C840.117 483.407 829.35 493.393 812.702 495.91Z" fill="white"/>
<path d="M770.905 428.999C765.872 429.76 762.26 434.684 763.025 439.742C763.848 445.189 768.695 448.436 773.728 447.675C778.762 446.914 782.432 442.379 781.608 436.932C780.844 431.874 775.938 428.238 770.905 428.999Z" fill="white"/>
<path d="M843.555 427.567C842.79 422.508 837.884 418.872 832.851 419.633C827.818 420.394 824.206 425.318 824.971 430.376C825.794 435.824 830.642 439.071 835.675 438.31C840.708 437.549 844.378 433.014 843.555 427.567Z" fill="white"/>
<circle cx="1237.11" cy="310.11" r="100" transform="rotate(-12.5673 1237.11 310.11)" fill="#F3EA5D"/>
<path d="M1246.75 352.435C1229.93 356.184 1216.67 350.674 1207.99 344.141C1205.1 341.964 1201.27 342.816 1199.03 345.333C1196.87 348.234 1197.72 352.075 1200.23 354.337C1211.25 362.364 1228.08 369.497 1249.49 364.726C1270.51 360.04 1282.72 346.432 1289.28 334.486C1290.59 331.371 1289.74 327.53 1286.55 325.822C1283.44 324.498 1279.62 325.35 1277.93 328.55C1273.23 338.064 1263.18 348.771 1246.75 352.435Z" fill="#4D49BE"/>
<path d="M1200.42 288.578C1195.45 289.686 1192.19 294.848 1193.3 299.841C1194.5 305.218 1199.56 308.122 1204.53 307.015C1209.5 305.907 1212.84 301.129 1211.64 295.752C1210.53 290.758 1205.39 287.471 1200.42 288.578Z" fill="#4D49BE"/>
<path d="M1272.79 282.12C1271.68 277.127 1266.53 273.839 1261.57 274.946C1256.6 276.054 1253.34 281.216 1254.45 286.209C1255.65 291.587 1260.71 294.49 1265.68 293.383C1270.64 292.275 1273.99 287.497 1272.79 282.12Z" fill="#4D49BE"/>
<circle cx="1163.02" cy="465.019" r="100" transform="rotate(-17.21 1163.02 465.019)" fill="#05C3DD"/>
<path d="M1176.05 506.425C1159.59 511.523 1145.93 507.105 1136.75 501.296C1133.69 499.36 1129.95 500.518 1127.91 503.209C1125.99 506.275 1127.16 510.034 1129.84 512.086C1141.47 519.195 1158.83 524.942 1179.78 518.454C1200.35 512.082 1211.42 497.53 1216.99 485.092C1218.05 481.882 1216.88 478.123 1213.57 476.678C1210.37 475.61 1206.63 476.768 1205.2 480.095C1201.28 489.958 1192.13 501.444 1176.05 506.425Z" fill="white"/>
<path d="M1124.7 446.528C1119.84 448.034 1117.01 453.444 1118.52 458.33C1120.15 463.593 1125.43 466.077 1130.29 464.571C1135.15 463.065 1138.1 458.032 1136.47 452.769C1134.96 447.883 1129.57 445.022 1124.7 446.528Z" fill="white"/>
<path d="M1196.32 434.233C1194.81 429.346 1189.41 426.485 1184.55 427.992C1179.69 429.498 1176.85 434.907 1178.37 439.794C1180 445.056 1185.27 447.541 1190.14 446.035C1195 444.529 1197.95 439.495 1196.32 434.233Z" fill="white"/>
<path d="M989.227 400.619C995.718 409.256 1006.89 418.194 1024.04 419.296C1040.8 420.373 1053.41 412.963 1060.56 405.202C1063.08 402.624 1066.98 402.874 1069.58 404.999C1072.16 407.513 1071.91 411.411 1069.78 414.015C1060.17 423.574 1044.68 433.148 1023.24 431.77C1001.41 430.368 987.27 418.891 978.955 408.18C977.182 405.326 977.432 401.427 980.311 399.264C983.165 397.49 987.063 397.74 989.227 400.619ZM987.504 354.32C987.83 349.252 992.393 345.24 997.461 345.565C1002.53 345.891 1006.54 350.454 1006.22 355.522C1005.86 360.98 1001.33 364.602 996.259 364.277C991.191 363.951 987.154 359.778 987.504 354.32ZM1059.83 349.572C1064.9 349.898 1068.91 354.461 1068.59 359.529C1068.24 364.987 1063.7 368.609 1058.63 368.284C1053.56 367.958 1049.52 363.784 1049.88 358.327C1050.2 353.259 1054.76 349.247 1059.83 349.572Z" fill="#4D49BE"/>
<path d="M1114.16 381.246C1116.17 350.06 1101.23 320.526 1075.34 303.205C1049.08 285.47 1015.94 283.341 988.017 297.596C959.728 311.435 941.527 338.841 939.523 370.026C937.495 401.602 952.039 431.111 978.325 448.456C1004.2 466.167 1037.33 468.296 1065.64 454.066C1093.54 440.201 1112.13 412.821 1114.16 381.246ZM927.049 369.225C929.328 333.751 950.143 302.208 982.481 286.28C1014.43 270.327 1052.24 272.756 1082.28 292.691C1111.92 312.601 1128.92 346.573 1126.64 382.047C1124.33 417.911 1103.13 449.429 1071.18 465.382C1038.84 481.31 1001.03 478.881 971.387 458.971C941.353 439.035 924.745 405.088 927.049 369.225Z" fill="#4D49BE"/>
<path d="M744.77 217.905C754.241 223.103 768.099 226.648 784.184 220.59C799.902 214.669 808.343 202.724 811.666 192.707C812.895 189.322 816.551 187.945 819.798 188.809C823.183 190.038 824.56 193.694 823.696 196.941C818.869 209.612 808.695 224.714 788.59 232.288C768.119 239.998 750.51 235.361 738.523 229.023C735.731 227.153 734.354 223.498 736.087 220.34C737.957 217.549 741.613 216.172 744.77 217.905ZM724.135 176.422C722.345 171.669 724.852 166.134 729.604 164.344C734.356 162.554 739.892 165.06 741.682 169.812C743.61 174.93 740.965 180.1 736.213 181.89C731.461 183.68 726.063 181.539 724.135 176.422ZM788.092 142.313C792.844 140.523 798.38 143.029 800.17 147.781C802.098 152.899 799.454 158.069 794.702 159.859C789.949 161.649 784.551 159.508 782.624 154.391C780.834 149.639 783.34 144.103 788.092 142.313Z" fill="#F277C6"/>
<path d="M850.646 148.805C839.63 119.561 813.86 98.7961 783.129 93.6749C751.895 88.3258 720.823 100.03 701.245 124.518C681.164 148.779 675.863 181.247 686.878 210.491C698.031 240.101 723.436 261.003 754.533 265.987C785.401 271.474 816.473 259.77 836.416 235.144C856.132 211.021 861.799 178.415 850.646 148.805ZM675.181 214.898C662.651 181.632 668.631 144.317 691.541 116.486C714.086 88.7926 749.544 75.4364 785.122 81.2363C820.335 87.1739 849.813 111.133 862.343 144.399C875.011 178.029 868.665 215.483 846.121 243.176C823.21 271.007 787.752 284.363 752.539 278.425C716.961 272.626 687.848 248.528 675.181 214.898Z" fill="#F277C6"/>
<circle cx="1106.51" cy="194.507" r="100" transform="rotate(25.6084 1106.51 194.507)" fill="#F277C6"/>
<path d="M1087.92 233.735C1072.39 226.289 1065.36 213.759 1062.58 203.261C1061.65 199.761 1058.12 198.069 1054.8 198.659C1051.31 199.603 1049.61 203.152 1050.18 206.482C1053.88 219.601 1062.71 235.613 1082.48 245.091C1101.9 254.399 1119.91 251.249 1132.45 245.915C1135.41 244.277 1137.11 240.729 1135.66 237.415C1134.04 234.456 1130.51 232.763 1127.2 234.232C1117.62 238.807 1103.11 241.013 1087.92 233.735Z" fill="#4D49BE"/>
<path d="M1090.97 154.901C1086.38 152.701 1080.62 154.743 1078.41 159.356C1076.03 164.324 1078.22 169.735 1082.81 171.935C1087.4 174.135 1092.98 172.448 1095.36 167.48C1097.57 162.867 1095.56 157.101 1090.97 154.901Z" fill="#4D49BE"/>
<path d="M1151.86 194.558C1154.07 189.945 1152.06 184.18 1147.47 181.98C1142.88 179.78 1137.12 181.822 1134.91 186.435C1132.53 191.403 1134.71 196.813 1139.3 199.013C1143.89 201.213 1149.48 199.526 1151.86 194.558Z" fill="#4D49BE"/>
<path d="M1006.28 609.708C1011.7 619.057 1021.72 629.262 1038.62 632.4C1055.13 635.466 1068.54 629.612 1076.56 622.759C1079.37 620.499 1083.21 621.212 1085.54 623.631C1087.8 626.435 1087.09 630.276 1084.67 632.607C1073.98 640.953 1057.46 648.612 1036.34 644.69C1014.83 640.696 1002.16 627.616 995.182 615.99C993.761 612.945 994.474 609.104 997.59 607.299C1000.64 605.878 1004.48 606.591 1006.28 609.708ZM1010.09 563.533C1011.02 558.54 1016.02 555.1 1021.02 556.027C1026.01 556.954 1029.45 561.963 1028.52 566.956C1027.52 572.333 1022.59 575.389 1017.59 574.462C1012.6 573.535 1009.09 568.91 1010.09 563.533ZM1082.47 567.438C1087.46 568.365 1090.9 573.375 1089.97 578.367C1088.97 583.744 1084.04 586.8 1079.04 585.873C1074.05 584.946 1070.54 580.321 1071.54 574.944C1072.46 569.951 1077.47 566.511 1082.47 567.438Z" fill="#F277C6"/>
<path d="M1132.64 605.361C1138.34 574.636 1127.03 543.533 1103.39 523.249C1079.43 502.511 1046.78 496.448 1017.36 507.274C987.62 517.644 966.283 542.685 960.578 573.409C954.801 604.518 965.725 635.55 989.756 655.905C1013.33 676.572 1045.98 682.634 1075.79 671.88C1105.14 661.439 1126.86 636.469 1132.64 605.361ZM948.288 571.127C954.778 536.178 979.204 507.34 1013.21 495.379C1046.83 483.347 1084.08 490.265 1111.53 513.637C1138.59 536.938 1151.42 572.693 1144.93 607.643C1138.36 642.976 1113.55 671.743 1079.93 683.775C1045.93 695.736 1008.67 688.818 981.614 665.517C954.17 642.145 941.726 606.461 948.288 571.127Z" fill="#F277C6"/>
<circle cx="944.994" cy="51.0093" r="100" transform="rotate(8.73 944.994 51.0093)" fill="#05C3DD"/>
<path d="M938.599 93.9435C921.57 91.3285 911.213 81.3775 905.501 72.1396C903.597 69.0603 899.726 68.4659 896.719 69.9947C893.651 71.9125 893.054 75.8021 894.571 78.8219C901.92 90.3018 915.014 103.062 936.688 106.39C957.974 109.659 974.294 101.415 984.748 92.6693C987.102 90.2438 987.699 86.3542 985.348 83.6044C982.937 81.2436 979.067 80.6493 976.327 83.0154C968.493 90.1732 955.241 96.499 938.599 93.9435Z" fill="white"/>
<path d="M918.626 17.6205C913.595 16.8479 908.681 20.4727 907.904 25.5292C907.068 30.9746 910.728 35.5179 915.76 36.2905C920.791 37.0631 925.645 33.8273 926.482 28.3819C927.258 23.3254 923.658 18.3931 918.626 17.6205Z" fill="white"/>
<path d="M988.406 37.8908C989.183 32.8343 985.582 27.902 980.551 27.1294C975.52 26.3568 970.605 29.9817 969.829 35.0381C968.993 40.4836 972.653 45.0269 977.684 45.7995C982.715 46.5721 987.57 43.3362 988.406 37.8908Z" fill="white"/>
<path d="M227.262 325.932C230.945 325.932 233.667 326.092 235.429 326.412C237.35 326.572 239.432 327.293 241.674 328.574C244.076 329.855 245.758 332.017 246.718 335.06C247.679 338.102 248.16 342.186 248.16 347.31C248.16 352.434 247.679 356.518 246.718 359.56C245.758 362.603 244.076 364.765 241.674 366.046C239.272 367.167 237.11 367.887 235.189 368.207C233.427 368.368 230.625 368.448 226.782 368.448H153.28V392.708H200.6C204.443 392.708 207.245 392.868 209.007 393.188C210.928 393.349 213.09 394.069 215.492 395.35C219.656 397.752 221.737 404.078 221.737 414.326C221.737 425.536 218.695 432.181 212.61 434.263C210.047 435.064 205.964 435.464 200.359 435.464H153.28V480.862C153.28 484.705 153.12 487.508 152.799 489.269C152.639 491.031 151.919 493.113 150.637 495.515C148.396 499.838 142.15 502 131.902 502C120.692 502 114.127 498.957 112.205 492.872C111.244 490.31 110.764 486.227 110.764 480.622V347.07C110.764 338.903 112.285 333.378 115.328 330.496C118.37 327.453 124.135 325.932 132.622 325.932H227.262Z" fill="#F277C6"/>
<path d="M305.603 501.52C289.43 501.52 275.979 495.435 265.25 483.264C254.681 470.934 249.396 455.961 249.396 438.346V396.311C249.396 392.468 249.476 389.666 249.636 387.904C249.957 386.143 250.677 384.061 251.798 381.659C254.04 377.335 260.285 375.173 270.534 375.173C281.743 375.173 288.309 378.216 290.231 384.301C291.191 386.863 291.672 390.947 291.672 396.551V438.587C291.672 445.152 293.513 450.277 297.196 453.96C301.04 457.643 306.084 459.484 312.329 459.484C318.735 459.484 323.859 457.563 327.702 453.719C331.705 449.876 333.707 444.832 333.707 438.587V396.071C333.707 392.388 333.787 389.666 333.947 387.904C334.268 385.982 335.068 383.821 336.349 381.419C338.431 377.255 344.596 375.173 354.845 375.173C364.933 375.173 371.099 377.335 373.34 381.659C374.461 384.061 375.102 386.223 375.262 388.144C375.582 389.906 375.743 392.628 375.743 396.311V481.343C375.743 484.866 375.582 487.588 375.262 489.51C375.102 491.271 374.381 493.273 373.1 495.515C370.698 499.678 364.533 501.76 354.605 501.76C344.836 501.76 338.831 499.838 336.59 495.995C334.988 493.273 334.188 489.99 334.188 486.147C333.547 487.268 332.106 488.869 329.864 490.951C327.622 493.032 325.46 494.794 323.378 496.235C317.934 499.758 312.009 501.52 305.603 501.52Z" fill="#F277C6"/>
<path d="M465.445 375.414C481.458 375.414 494.75 381.579 505.318 393.909C516.047 406.079 521.412 420.972 521.412 438.587V480.862C521.412 484.545 521.252 487.348 520.932 489.269C520.771 491.031 520.131 493.033 519.01 495.274C516.768 499.598 510.523 501.76 500.274 501.76C488.905 501.76 482.339 498.797 480.578 492.872C479.617 490.15 479.136 486.067 479.136 480.622V438.346C479.136 431.781 477.215 426.657 473.372 422.974C469.688 419.29 464.644 417.449 458.239 417.449C451.994 417.449 446.869 419.371 442.866 423.214C439.023 427.057 437.101 432.101 437.101 438.346V480.862C437.101 484.545 436.941 487.348 436.621 489.269C436.46 491.031 435.74 493.033 434.459 495.274C432.377 499.598 426.212 501.76 415.963 501.76C405.875 501.76 399.71 499.598 397.468 495.274C396.347 492.872 395.626 490.791 395.306 489.029C395.146 487.108 395.066 484.305 395.066 480.622V395.591C395.066 392.068 395.146 389.425 395.306 387.664C395.626 385.742 396.427 383.66 397.708 381.419C399.95 377.415 406.115 375.414 416.203 375.414C425.972 375.414 431.977 377.255 434.219 380.938C435.82 383.66 436.621 386.943 436.621 390.786C437.261 389.666 438.702 388.064 440.944 385.982C443.186 383.901 445.348 382.219 447.43 380.938C452.874 377.255 458.879 375.414 465.445 375.414Z" fill="#F277C6"/>
<path d="M334.92 286.266C341.142 286.266 344.794 287.979 345.876 291.406C346.417 293.119 346.687 295.373 346.687 298.169C346.687 300.964 346.372 303.218 345.74 304.932C345.199 306.555 344.298 307.727 343.035 308.448C341.142 309.531 338.391 310.072 334.784 310.072L326.128 309.531V345.78C326.128 349.207 325.677 351.777 324.775 353.49C323.964 355.113 322.656 356.195 320.853 356.736C319.139 357.277 316.885 357.548 314.09 357.548C311.294 357.548 309.04 357.277 307.327 356.736C305.704 356.105 304.531 355.158 303.81 353.896C303.089 352.543 302.638 351.326 302.457 350.244C302.367 349.162 302.322 347.584 302.322 345.51V309.666H297.453C295.108 309.485 293.44 308.944 292.448 308.043C290.735 306.329 289.878 303.038 289.878 298.169C289.878 290.775 292.538 287.077 297.859 287.077H302.322V279.909C302.322 272.965 304.802 266.698 309.761 261.108C314.721 255.427 321.89 252.586 331.268 252.586C333.342 252.586 334.875 252.676 335.867 252.857C336.949 252.947 338.166 253.353 339.519 254.074C341.953 255.246 343.171 258.718 343.171 264.489C343.171 268.817 342.404 271.928 340.871 273.822C339.609 275.265 337.625 276.076 334.92 276.257C334.108 276.257 332.846 276.257 331.132 276.257C327.796 276.257 326.128 277.384 326.128 279.638V287.077L334.92 286.266Z" fill="#4D49BE"/>
<path d="M349.482 321.839C349.482 311.018 353.27 302.091 360.844 295.058C368.419 288.024 377.075 284.508 386.814 284.508C396.553 284.508 405.164 288.024 412.648 295.058C420.133 302.001 423.875 310.883 423.875 321.704C423.875 329.188 421.936 335.861 418.059 341.722C414.181 347.493 409.447 351.777 403.857 354.572C398.356 357.277 392.63 358.63 386.679 358.63C380.727 358.63 374.956 357.187 369.365 354.301C363.775 351.326 359.041 346.997 355.163 341.316C351.376 335.545 349.482 329.053 349.482 321.839ZM377.752 331.578C380.637 333.742 383.568 334.824 386.543 334.824C389.519 334.824 392.495 333.697 395.471 331.443C398.446 329.188 399.934 325.852 399.934 321.433C399.934 317.015 398.536 313.724 395.741 311.559C392.946 309.395 389.925 308.313 386.679 308.313C383.432 308.313 380.412 309.44 377.616 311.695C374.821 313.949 373.423 317.285 373.423 321.704C373.423 326.032 374.866 329.323 377.752 331.578Z" fill="#4D49BE"/>
<path d="M481.037 286.942C482.75 287.483 484.148 288.43 485.23 289.783C486.402 291.045 486.988 293.119 486.988 296.005C486.988 298.89 486.132 302.046 484.418 305.473C482.705 308.899 480.225 310.613 476.979 310.613C475.356 310.613 473.778 310.252 472.245 309.531C470.802 308.809 468.864 308.448 466.429 308.448C463.994 308.448 461.695 309.305 459.531 311.018C457.457 312.732 456.42 314.806 456.42 317.24V345.645C456.42 347.719 456.329 349.297 456.149 350.379C456.059 351.371 455.653 352.543 454.932 353.896C453.579 356.24 450.062 357.412 444.382 357.412C440.053 357.412 436.942 356.646 435.049 355.113C433.606 353.851 432.794 351.912 432.614 349.297C432.614 348.395 432.614 347.088 432.614 345.374V297.898C432.614 295.824 432.659 294.291 432.749 293.299C432.93 292.217 433.335 291.045 433.967 289.783C435.229 287.348 438.746 286.131 444.517 286.131C449.927 286.131 453.309 287.168 454.661 289.242C455.653 290.684 456.149 292.172 456.149 293.705C456.6 293.074 457.231 292.307 458.043 291.406C458.945 290.504 460.793 289.287 463.588 287.754C466.384 286.221 468.818 285.454 470.892 285.454C473.057 285.454 474.86 285.59 476.303 285.86C477.746 286.04 479.324 286.401 481.037 286.942Z" fill="#4D49BE"/>
<path d="M154.055 137C157.572 137 160.142 137.316 161.765 137.947C163.478 138.488 164.695 139.435 165.417 140.787C166.409 142.861 166.905 145.657 166.905 149.173V201.519C166.905 210.987 163.478 219.373 156.625 226.677C149.772 233.891 141.025 237.498 130.385 237.498C124.433 237.498 119.158 236.19 114.559 233.575C110.411 231.321 107.526 229.292 105.903 227.489L104.821 226.407C101.664 223.07 100.086 220.23 100.086 217.885C100.086 215.45 101.664 212.61 104.821 209.364C107.977 206.118 110.772 204.494 113.207 204.494C115.641 204.494 118.346 205.982 121.322 208.958C124.298 211.934 127.499 213.422 130.926 213.422C134.442 213.422 137.328 212.249 139.582 209.905C141.837 207.56 142.964 204.449 142.964 200.572V149.985C142.964 144.575 143.865 141.103 145.669 139.57C147.743 137.857 150.538 137 154.055 137Z" fill="#05C3DD"/>
<path d="M209.353 235.875C200.245 235.875 192.671 232.448 186.629 225.595C180.678 218.652 177.702 210.22 177.702 200.301V176.631C177.702 174.467 177.747 172.889 177.837 171.897C178.018 170.905 178.423 169.733 179.055 168.38C180.317 165.946 183.834 164.728 189.605 164.728C195.917 164.728 199.614 166.441 200.696 169.868C201.237 171.311 201.508 173.61 201.508 176.766V200.437C201.508 204.134 202.545 207.019 204.619 209.093C206.783 211.167 209.623 212.204 213.14 212.204C216.747 212.204 219.633 211.122 221.797 208.958C224.051 206.794 225.178 203.953 225.178 200.437V176.496C225.178 174.422 225.223 172.889 225.313 171.897C225.494 170.815 225.945 169.598 226.666 168.245C227.838 165.9 231.31 164.728 237.081 164.728C242.762 164.728 246.234 165.946 247.496 168.38C248.127 169.733 248.488 170.95 248.578 172.032C248.758 173.024 248.849 174.557 248.849 176.631V224.513C248.849 226.497 248.758 228.03 248.578 229.112C248.488 230.104 248.082 231.231 247.361 232.493C246.008 234.838 242.536 236.01 236.946 236.01C231.445 236.01 228.064 234.928 226.801 232.764C225.9 231.231 225.449 229.382 225.449 227.218C225.088 227.849 224.276 228.751 223.014 229.923C221.752 231.095 220.534 232.087 219.362 232.899C216.296 234.883 212.96 235.875 209.353 235.875Z" fill="#05C3DD"/>
<path d="M260.271 229.788C258.557 228.706 257.701 226.993 257.701 224.648C257.701 222.304 259.414 218.742 262.841 213.963C263.832 212.43 265.41 211.663 267.575 211.663C269.829 211.663 272.85 212.79 276.637 215.045C280.424 217.209 283.851 218.291 286.917 218.291C292.417 218.291 295.168 217.209 295.168 215.045C295.168 213.331 292.147 212.069 286.105 211.257C280.424 210.446 274.788 208.327 269.198 204.9C266.583 203.277 264.419 200.752 262.705 197.326C260.992 193.809 260.135 189.661 260.135 184.882C260.135 170.635 269.919 163.511 289.487 163.511C295.889 163.511 302.472 165.044 309.235 168.11C312.391 169.552 313.969 171.356 313.969 173.52C313.969 175.684 312.977 178.344 310.993 181.5C309.009 184.656 306.98 186.234 304.906 186.234C303.824 186.234 301.795 185.558 298.82 184.206C295.934 182.853 292.778 182.177 289.351 182.177C284.031 182.177 281.371 183.169 281.371 185.152C281.371 187.858 284.437 189.616 290.569 190.427C296.52 191.059 302.291 192.772 307.882 195.567C310.497 196.83 312.661 199.039 314.374 202.195C316.178 205.261 317.08 209.138 317.08 213.827C317.08 218.516 316.178 222.529 314.374 225.865C312.661 229.112 310.226 231.546 307.07 233.169C301.299 235.965 294.04 237.363 285.294 237.363C276.637 237.363 268.296 234.838 260.271 229.788Z" fill="#05C3DD"/>
<path d="M365.182 188.804L356.39 188.263V206.929C356.39 209.364 356.751 211.122 357.472 212.204C358.284 213.286 359.727 213.827 361.801 213.827C363.965 213.827 365.588 213.918 366.67 214.098C367.842 214.188 369.06 214.594 370.322 215.315C372.396 216.487 373.433 219.508 373.433 224.378C373.433 230.059 372.171 233.53 369.646 234.793C368.293 235.424 367.076 235.83 365.994 236.01C365.002 236.1 363.514 236.145 361.53 236.145C352.152 236.145 345.029 234.026 340.159 229.788C335.29 225.55 332.855 218.381 332.855 208.282V188.263C331.142 188.534 329.293 188.669 327.31 188.669C325.326 188.669 323.658 187.903 322.305 186.37C321.043 184.837 320.411 182.222 320.411 178.525C320.411 174.828 320.637 172.167 321.088 170.544C321.539 168.831 322.17 167.614 322.981 166.892C324.424 165.72 326.228 165.134 328.392 165.134L332.855 165.675V151.743C332.855 149.669 332.9 148.136 332.991 147.144C333.171 146.153 333.622 145.07 334.343 143.898C335.515 141.644 338.987 140.517 344.758 140.517C350.89 140.517 354.542 142.185 355.714 145.521C356.165 146.964 356.39 149.264 356.39 152.42V165.675C360.358 165.314 363.334 165.134 365.318 165.134C367.392 165.134 368.924 165.224 369.916 165.404C370.998 165.495 372.216 165.9 373.568 166.622C375.913 167.794 377.085 171.266 377.085 177.037C377.085 182.718 375.868 186.189 373.433 187.452C372.081 188.083 370.863 188.489 369.781 188.669C368.789 188.759 367.256 188.804 365.182 188.804Z" fill="#05C3DD"/>
</g>
<defs>
<clipPath id="clip0_1_116">
<rect width="1280" height="640" fill="white"/>
</clipPath>
</defs>
</svg>
