<svg width="1280" height="640" viewBox="0 0 1280 640" fill="none" xmlns="http://www.w3.org/2000/svg">
<g clip-path="url(#clip0_1_1568)">
<rect width="1280" height="640" fill="white"/>
<path d="M907.747 577.872C907.747 612.043 880.046 639.744 845.875 639.744C811.704 639.744 784 612.043 784 577.872C784 543.701 811.704 516 845.875 516C880.046 516 907.747 543.701 907.747 577.872Z" fill="#F277C6"/>
<path d="M1203.75 61.8719C1203.75 96.0428 1176.05 123.744 1141.87 123.744C1107.7 123.744 1080 96.0428 1080 61.8719C1080 27.701 1107.7 5.35708e-05 1141.87 5.35708e-05C1176.05 5.35708e-05 1203.75 27.701 1203.75 61.8719Z" fill="#F3EA5D"/>
<path d="M726.747 257.872C726.747 292.043 699.046 319.744 664.875 319.744C630.704 319.744 603 292.043 603 257.872C603 223.701 630.704 196 664.875 196C699.046 196 726.747 223.701 726.747 257.872Z" fill="#05C3DD"/>
<path d="M1204.13 588.56C1204.13 594.393 1199.39 599.122 1193.56 599.122C1187.73 599.122 1183 594.393 1183 588.56C1183 582.729 1187.73 578 1193.56 578C1199.39 578 1204.13 582.729 1204.13 588.56Z" fill="#7D55C7"/>
<path d="M1250.13 598.56C1250.13 604.393 1245.4 609.12 1239.57 609.12C1233.73 609.12 1229 604.393 1229 598.56C1229 592.726 1233.73 588 1239.57 588C1245.4 588 1250.13 592.726 1250.13 598.56Z" fill="#F3EA5D"/>
<path d="M727.125 55.5598C727.125 61.3934 722.393 66.1224 716.56 66.1224C710.726 66.1224 706 61.3934 706 55.5598C706 49.7291 710.726 45 716.56 45C722.393 45 727.125 49.7291 727.125 55.5598Z" fill="#05C3DD"/>
<path d="M794.125 28.5598C794.125 34.3934 789.399 39.1196 783.566 39.1196C777.732 39.1196 773 34.3934 773 28.5598C773 22.7263 777.732 18 783.566 18C789.399 18 794.125 22.7263 794.125 28.5598Z" fill="#F3EA5D"/>
<path d="M1243.35 139.56C1243.35 145.393 1238.63 150.122 1232.79 150.122C1226.96 150.122 1222.23 145.393 1222.23 139.56C1222.23 133.726 1226.96 129 1232.79 129C1238.63 129 1243.35 133.726 1243.35 139.56Z" fill="#05C3DD"/>
<path d="M966.122 482.642C966.122 488.476 961.393 493.205 955.56 493.205C949.726 493.205 945 488.476 945 482.642C945 476.808 949.726 472.082 955.56 472.082C961.393 472.082 966.122 476.808 966.122 482.642Z" fill="#F277C6"/>
<path d="M684.122 365.56C684.122 371.393 679.393 376.122 673.56 376.122C667.726 376.122 663 371.393 663 365.56C663 359.726 667.726 355 673.56 355C679.393 355 684.122 359.726 684.122 365.56Z" fill="#4D49BE"/>
<circle cx="881.024" cy="293.024" r="100" transform="rotate(-3.21414 881.024 293.024)" fill="#F3EA5D"/>
<path d="M883.653 336.352C866.452 337.318 854.26 329.726 846.759 321.87C844.259 319.252 840.35 319.471 837.724 321.59C835.119 324.101 835.34 328.03 837.449 330.67C847.015 340.381 862.466 350.155 884.359 348.925C905.862 347.718 920.122 336.275 928.54 325.555C930.34 322.695 930.12 318.766 927.251 316.562C924.404 314.751 920.494 314.971 918.303 317.853C912.12 326.477 900.464 335.408 883.653 336.352Z" fill="#4D49BE"/>
<path d="M848.318 265.815C843.235 266.101 839.178 270.664 839.465 275.772C839.773 281.272 844.295 284.96 849.377 284.674C854.459 284.389 858.539 280.219 858.23 274.718C857.943 269.61 853.4 265.53 848.318 265.815Z" fill="#4D49BE"/>
<path d="M920.782 271.205C920.495 266.098 915.952 262.017 910.87 262.303C905.787 262.588 901.729 267.151 902.016 272.259C902.325 277.76 906.846 281.447 911.929 281.162C917.011 280.876 921.091 276.706 920.782 271.205Z" fill="#4D49BE"/>
<circle cx="806.019" cy="453.019" r="100" transform="rotate(-8.59728 806.019 453.019)" fill="#7D55C7"/>
<path d="M812.702 495.91C795.667 498.485 782.816 492.07 774.612 484.953C771.877 482.58 768.006 483.166 765.59 485.521C763.232 488.265 763.821 492.156 766.168 494.587C776.603 503.357 792.903 511.639 814.584 508.361C835.878 505.141 849.002 492.411 856.378 480.949C857.902 477.932 857.313 474.041 854.25 472.116C851.246 470.581 847.374 471.166 845.463 474.241C840.117 483.407 829.35 493.393 812.702 495.91Z" fill="white"/>
<path d="M770.905 428.999C765.871 429.76 762.26 434.684 763.025 439.742C763.848 445.189 768.695 448.436 773.728 447.675C778.761 446.914 782.432 442.379 781.608 436.932C780.844 431.874 775.938 428.238 770.905 428.999Z" fill="white"/>
<path d="M843.555 427.567C842.79 422.508 837.884 418.872 832.851 419.633C827.818 420.394 824.206 425.318 824.971 430.376C825.794 435.824 830.641 439.071 835.675 438.31C840.708 437.549 844.378 433.014 843.555 427.567Z" fill="white"/>
<circle cx="1237.11" cy="310.11" r="100" transform="rotate(-12.5673 1237.11 310.11)" fill="#F3EA5D"/>
<path d="M1246.75 352.435C1229.93 356.184 1216.67 350.674 1207.99 344.141C1205.1 341.964 1201.27 342.816 1199.03 345.333C1196.87 348.234 1197.72 352.075 1200.23 354.337C1211.25 362.364 1228.08 369.497 1249.49 364.726C1270.51 360.04 1282.72 346.432 1289.28 334.486C1290.59 331.371 1289.74 327.53 1286.55 325.822C1283.44 324.498 1279.62 325.35 1277.93 328.55C1273.23 338.064 1263.18 348.771 1246.75 352.435Z" fill="#4D49BE"/>
<path d="M1200.42 288.578C1195.45 289.686 1192.19 294.848 1193.3 299.841C1194.5 305.218 1199.56 308.122 1204.53 307.015C1209.49 305.907 1212.84 301.129 1211.64 295.752C1210.53 290.758 1205.39 287.471 1200.42 288.578Z" fill="#4D49BE"/>
<path d="M1272.79 282.12C1271.68 277.127 1266.53 273.839 1261.57 274.946C1256.6 276.054 1253.34 281.216 1254.45 286.209C1255.65 291.587 1260.71 294.49 1265.68 293.383C1270.64 292.275 1273.99 287.497 1272.79 282.12Z" fill="#4D49BE"/>
<circle cx="1163.02" cy="465.019" r="100" transform="rotate(-17.21 1163.02 465.019)" fill="#05C3DD"/>
<path d="M1176.05 506.425C1159.59 511.523 1145.93 507.105 1136.75 501.296C1133.69 499.36 1129.95 500.518 1127.91 503.209C1125.99 506.275 1127.16 510.034 1129.84 512.086C1141.47 519.195 1158.83 524.942 1179.78 518.454C1200.35 512.082 1211.42 497.53 1216.99 485.092C1218.05 481.882 1216.88 478.123 1213.57 476.678C1210.37 475.61 1206.63 476.768 1205.2 480.095C1201.28 489.958 1192.13 501.444 1176.05 506.425Z" fill="white"/>
<path d="M1124.7 446.528C1119.84 448.034 1117.01 453.444 1118.52 458.33C1120.15 463.593 1125.43 466.077 1130.29 464.571C1135.15 463.065 1138.1 458.032 1136.47 452.769C1134.96 447.883 1129.57 445.022 1124.7 446.528Z" fill="white"/>
<path d="M1196.32 434.233C1194.81 429.346 1189.41 426.485 1184.55 427.992C1179.69 429.498 1176.85 434.907 1178.37 439.794C1180 445.056 1185.27 447.541 1190.14 446.035C1195 444.529 1197.95 439.495 1196.32 434.233Z" fill="white"/>
<path d="M989.227 400.619C995.718 409.256 1006.89 418.194 1024.04 419.296C1040.8 420.373 1053.41 412.963 1060.56 405.202C1063.08 402.624 1066.98 402.874 1069.58 404.999C1072.16 407.513 1071.91 411.411 1069.78 414.015C1060.17 423.574 1044.68 433.148 1023.24 431.77C1001.41 430.368 987.27 418.891 978.955 408.18C977.182 405.326 977.432 401.427 980.311 399.264C983.165 397.49 987.063 397.74 989.227 400.619ZM987.504 354.32C987.83 349.252 992.393 345.24 997.461 345.565C1002.53 345.891 1006.54 350.454 1006.22 355.522C1005.86 360.98 1001.33 364.602 996.259 364.277C991.191 363.951 987.154 359.778 987.504 354.32ZM1059.83 349.572C1064.9 349.898 1068.91 354.461 1068.59 359.529C1068.24 364.987 1063.7 368.609 1058.63 368.284C1053.56 367.958 1049.52 363.784 1049.88 358.327C1050.2 353.259 1054.76 349.247 1059.83 349.572Z" fill="#4D49BE"/>
<path d="M1114.16 381.246C1116.17 350.06 1101.23 320.526 1075.34 303.205C1049.08 285.47 1015.94 283.341 988.017 297.596C959.728 311.435 941.527 338.841 939.523 370.026C937.495 401.602 952.039 431.111 978.325 448.456C1004.2 466.167 1037.33 468.296 1065.64 454.066C1093.54 440.201 1112.13 412.821 1114.16 381.246ZM927.049 369.225C929.328 333.751 950.143 302.208 982.481 286.28C1014.43 270.327 1052.24 272.756 1082.28 292.691C1111.92 312.601 1128.92 346.573 1126.64 382.047C1124.33 417.911 1103.13 449.429 1071.18 465.382C1038.84 481.31 1001.03 478.881 971.387 458.971C941.353 439.035 924.745 405.088 927.049 369.225Z" fill="#4D49BE"/>
<path d="M744.77 217.905C754.241 223.103 768.099 226.648 784.184 220.59C799.902 214.669 808.343 202.724 811.666 192.707C812.895 189.322 816.551 187.945 819.798 188.809C823.183 190.038 824.56 193.694 823.696 196.941C818.869 209.612 808.695 224.714 788.59 232.288C768.119 239.998 750.51 235.361 738.523 229.023C735.731 227.153 734.354 223.498 736.087 220.34C737.957 217.549 741.613 216.172 744.77 217.905ZM724.135 176.422C722.345 171.669 724.852 166.134 729.604 164.344C734.356 162.554 739.892 165.06 741.682 169.812C743.61 174.93 740.965 180.1 736.213 181.89C731.461 183.68 726.063 181.539 724.135 176.422ZM788.092 142.313C792.844 140.523 798.38 143.029 800.17 147.781C802.098 152.899 799.454 158.069 794.702 159.859C789.949 161.649 784.551 159.508 782.624 154.391C780.834 149.639 783.34 144.103 788.092 142.313Z" fill="#F277C6"/>
<path d="M850.646 148.805C839.63 119.561 813.86 98.7961 783.129 93.6749C751.895 88.3258 720.823 100.03 701.245 124.518C681.164 148.779 675.863 181.247 686.878 210.491C698.031 240.101 723.436 261.003 754.533 265.987C785.401 271.474 816.473 259.77 836.416 235.144C856.132 211.021 861.799 178.415 850.646 148.805ZM675.181 214.898C662.651 181.632 668.631 144.317 691.541 116.486C714.086 88.7926 749.544 75.4364 785.122 81.2363C820.335 87.1739 849.813 111.133 862.343 144.399C875.011 178.029 868.665 215.483 846.121 243.176C823.21 271.007 787.752 284.363 752.539 278.425C716.961 272.626 687.848 248.528 675.181 214.898Z" fill="#F277C6"/>
<circle cx="1106.51" cy="194.507" r="100" transform="rotate(25.6084 1106.51 194.507)" fill="#F277C6"/>
<path d="M1087.92 233.735C1072.39 226.289 1065.36 213.759 1062.58 203.261C1061.65 199.761 1058.12 198.069 1054.8 198.659C1051.31 199.603 1049.61 203.152 1050.18 206.482C1053.88 219.601 1062.71 235.613 1082.48 245.091C1101.9 254.399 1119.91 251.249 1132.45 245.915C1135.41 244.277 1137.11 240.729 1135.66 237.415C1134.04 234.456 1130.51 232.763 1127.2 234.232C1117.62 238.807 1103.11 241.013 1087.92 233.735Z" fill="#4D49BE"/>
<path d="M1090.97 154.901C1086.38 152.701 1080.62 154.743 1078.41 159.356C1076.03 164.324 1078.22 169.735 1082.81 171.935C1087.4 174.135 1092.98 172.448 1095.36 167.48C1097.57 162.867 1095.56 157.101 1090.97 154.901Z" fill="#4D49BE"/>
<path d="M1151.86 194.558C1154.07 189.945 1152.06 184.18 1147.47 181.98C1142.88 179.78 1137.12 181.822 1134.91 186.435C1132.53 191.403 1134.71 196.813 1139.3 199.013C1143.89 201.213 1149.48 199.526 1151.86 194.558Z" fill="#4D49BE"/>
<path d="M1006.28 609.708C1011.7 619.057 1021.72 629.262 1038.62 632.4C1055.13 635.466 1068.54 629.612 1076.56 622.759C1079.37 620.499 1083.21 621.212 1085.54 623.631C1087.8 626.435 1087.09 630.276 1084.67 632.607C1073.98 640.953 1057.46 648.612 1036.34 644.69C1014.83 640.696 1002.16 627.616 995.182 615.99C993.761 612.945 994.474 609.104 997.59 607.299C1000.64 605.878 1004.48 606.591 1006.28 609.708ZM1010.09 563.533C1011.02 558.54 1016.02 555.1 1021.02 556.027C1026.01 556.954 1029.45 561.963 1028.52 566.956C1027.52 572.333 1022.59 575.389 1017.59 574.462C1012.6 573.535 1009.09 568.91 1010.09 563.533ZM1082.47 567.438C1087.46 568.365 1090.9 573.375 1089.97 578.367C1088.97 583.744 1084.04 586.8 1079.04 585.873C1074.05 584.946 1070.54 580.321 1071.54 574.944C1072.46 569.951 1077.47 566.511 1082.47 567.438Z" fill="#F277C6"/>
<path d="M1132.64 605.361C1138.34 574.636 1127.03 543.533 1103.39 523.249C1079.43 502.511 1046.78 496.448 1017.36 507.274C987.62 517.644 966.283 542.685 960.578 573.409C954.801 604.518 965.725 635.55 989.756 655.905C1013.33 676.572 1045.98 682.634 1075.79 671.88C1105.14 661.439 1126.86 636.469 1132.64 605.361ZM948.288 571.127C954.778 536.178 979.204 507.34 1013.21 495.379C1046.83 483.347 1084.08 490.265 1111.53 513.637C1138.59 536.938 1151.42 572.693 1144.93 607.643C1138.36 642.976 1113.55 671.743 1079.93 683.775C1045.93 695.736 1008.67 688.818 981.614 665.517C954.17 642.145 941.726 606.461 948.288 571.127Z" fill="#F277C6"/>
<circle cx="944.994" cy="51.0093" r="100" transform="rotate(8.73 944.994 51.0093)" fill="#05C3DD"/>
<path d="M938.599 93.9435C921.57 91.3285 911.213 81.3775 905.501 72.1396C903.597 69.0603 899.726 68.4659 896.719 69.9947C893.651 71.9125 893.054 75.8021 894.571 78.8219C901.92 90.3018 915.014 103.062 936.687 106.39C957.974 109.659 974.294 101.415 984.748 92.6693C987.102 90.2438 987.699 86.3542 985.348 83.6044C982.937 81.2436 979.067 80.6493 976.327 83.0154C968.493 90.1732 955.241 96.499 938.599 93.9435Z" fill="white"/>
<path d="M918.626 17.6205C913.595 16.8479 908.681 20.4727 907.904 25.5292C907.068 30.9746 910.728 35.5179 915.76 36.2905C920.791 37.0631 925.645 33.8273 926.482 28.3819C927.258 23.3254 923.658 18.3931 918.626 17.6205Z" fill="white"/>
<path d="M988.406 37.8908C989.183 32.8343 985.582 27.902 980.551 27.1294C975.52 26.3568 970.605 29.9817 969.829 35.0381C968.993 40.4836 972.653 45.0269 977.684 45.7995C982.715 46.5721 987.57 43.3362 988.406 37.8908Z" fill="white"/>
<path d="M226.276 326.002C229.435 326.002 231.769 326.139 233.28 326.414C234.928 326.551 236.713 327.169 238.636 328.268C240.696 329.367 242.138 331.221 242.962 333.83C243.786 336.439 244.198 339.941 244.198 344.336C244.198 348.731 243.786 352.233 242.962 354.842C242.138 357.451 240.696 359.305 238.636 360.404C236.576 361.365 234.722 361.983 233.074 362.258C231.563 362.395 229.16 362.464 225.864 362.464H162.828V383.27H203.41C206.706 383.27 209.109 383.407 210.62 383.682C212.268 383.819 214.122 384.437 216.182 385.536C219.753 387.596 221.538 393.021 221.538 401.81C221.538 411.423 218.929 417.123 213.71 418.908C211.513 419.595 208.011 419.938 203.204 419.938H162.828V458.872C162.828 462.168 162.691 464.571 162.416 466.082C162.279 467.593 161.661 469.378 160.562 471.438C158.639 475.146 153.283 477 144.494 477C134.881 477 129.25 474.391 127.602 469.172C126.778 466.975 126.366 463.473 126.366 458.666V344.13C126.366 337.126 127.671 332.388 130.28 329.916C132.889 327.307 137.833 326.002 145.112 326.002H226.276Z" fill="#F277C6"/>
<path d="M293.463 476.588C279.592 476.588 268.056 471.369 258.855 460.932C249.791 450.357 245.259 437.517 245.259 422.41V386.36C245.259 383.064 245.327 380.661 245.465 379.15C245.739 377.639 246.357 375.854 247.319 373.794C249.241 370.086 254.597 368.232 263.387 368.232C273 368.232 278.631 370.841 280.279 376.06C281.103 378.257 281.515 381.759 281.515 386.566V422.616C281.515 428.247 283.094 432.641 286.253 435.8C289.549 438.959 293.875 440.538 299.231 440.538C304.724 440.538 309.119 438.89 312.415 435.594C315.848 432.298 317.565 427.972 317.565 422.616V386.154C317.565 382.995 317.633 380.661 317.771 379.15C318.045 377.502 318.732 375.648 319.831 373.588C321.616 370.017 326.903 368.232 335.693 368.232C344.345 368.232 349.632 370.086 351.555 373.794C352.516 375.854 353.065 377.708 353.203 379.356C353.477 380.867 353.615 383.201 353.615 386.36V459.284C353.615 462.305 353.477 464.64 353.203 466.288C353.065 467.799 352.447 469.515 351.349 471.438C349.289 475.009 344.001 476.794 335.487 476.794C327.109 476.794 321.959 475.146 320.037 471.85C318.663 469.515 317.977 466.7 317.977 463.404C317.427 464.365 316.191 465.739 314.269 467.524C312.346 469.309 310.492 470.82 308.707 472.056C304.037 475.077 298.956 476.588 293.463 476.588Z" fill="#F277C6"/>
<path d="M430.544 368.438C444.278 368.438 455.676 373.725 464.74 384.3C473.942 394.737 478.542 407.509 478.542 422.616V458.872C478.542 462.031 478.405 464.434 478.13 466.082C477.993 467.593 477.444 469.309 476.482 471.232C474.56 474.94 469.204 476.794 460.414 476.794C450.664 476.794 445.033 474.253 443.522 469.172C442.698 466.837 442.286 463.335 442.286 458.666V422.41C442.286 416.779 440.638 412.385 437.342 409.226C434.184 406.067 429.858 404.488 424.364 404.488C419.008 404.488 414.614 406.136 411.18 409.432C407.884 412.728 406.236 417.054 406.236 422.41V458.872C406.236 462.031 406.099 464.434 405.824 466.082C405.687 467.593 405.069 469.309 403.97 471.232C402.185 474.94 396.898 476.794 388.108 476.794C379.456 476.794 374.169 474.94 372.246 471.232C371.285 469.172 370.667 467.387 370.392 465.876C370.255 464.228 370.186 461.825 370.186 458.666V385.742C370.186 382.721 370.255 380.455 370.392 378.944C370.667 377.296 371.354 375.511 372.452 373.588C374.375 370.155 379.662 368.438 388.314 368.438C396.692 368.438 401.842 370.017 403.764 373.176C405.138 375.511 405.824 378.326 405.824 381.622C406.374 380.661 407.61 379.287 409.532 377.502C411.455 375.717 413.309 374.275 415.094 373.176C419.764 370.017 424.914 368.438 430.544 368.438Z" fill="#F277C6"/>
<path d="M318.604 291.984C323.94 291.984 327.072 293.453 328 296.392C328.464 297.861 328.696 299.795 328.696 302.192C328.696 304.589 328.426 306.523 327.884 307.992C327.42 309.384 326.647 310.389 325.564 311.008C323.94 311.936 321.582 312.4 318.488 312.4L311.064 311.936V343.024C311.064 345.963 310.678 348.167 309.904 349.636C309.208 351.028 308.087 351.956 306.54 352.42C305.071 352.884 303.138 353.116 300.74 353.116C298.343 353.116 296.41 352.884 294.94 352.42C293.548 351.879 292.543 351.067 291.924 349.984C291.306 348.824 290.919 347.78 290.764 346.852C290.687 345.924 290.648 344.571 290.648 342.792V312.052H286.472C284.462 311.897 283.031 311.433 282.18 310.66C280.711 309.191 279.976 306.368 279.976 302.192C279.976 295.851 282.258 292.68 286.82 292.68H290.648V286.532C290.648 280.577 292.775 275.203 297.028 270.408C301.282 265.536 307.43 263.1 315.472 263.1C317.251 263.1 318.566 263.177 319.416 263.332C320.344 263.409 321.388 263.757 322.548 264.376C324.636 265.381 325.68 268.359 325.68 273.308C325.68 277.02 325.023 279.688 323.708 281.312C322.626 282.549 320.924 283.245 318.604 283.4C317.908 283.4 316.826 283.4 315.356 283.4C312.495 283.4 311.064 284.367 311.064 286.3V292.68L318.604 291.984Z" fill="#4D49BE"/>
<path d="M331.093 322.492C331.093 313.212 334.341 305.556 340.837 299.524C347.333 293.492 354.757 290.476 363.109 290.476C371.461 290.476 378.847 293.492 385.265 299.524C391.684 305.479 394.893 313.096 394.893 322.376C394.893 328.795 393.231 334.517 389.905 339.544C386.58 344.493 382.52 348.167 377.725 350.564C373.008 352.884 368.097 354.044 362.993 354.044C357.889 354.044 352.94 352.807 348.145 350.332C343.351 347.78 339.291 344.068 335.965 339.196C332.717 334.247 331.093 328.679 331.093 322.492ZM355.337 330.844C357.812 332.7 360.325 333.628 362.877 333.628C365.429 333.628 367.981 332.661 370.533 330.728C373.085 328.795 374.361 325.933 374.361 322.144C374.361 318.355 373.163 315.532 370.765 313.676C368.368 311.82 365.777 310.892 362.993 310.892C360.209 310.892 357.619 311.859 355.221 313.792C352.824 315.725 351.625 318.587 351.625 322.376C351.625 326.088 352.863 328.911 355.337 330.844Z" fill="#4D49BE"/>
<path d="M443.916 292.564C445.385 293.028 446.584 293.84 447.512 295C448.517 296.083 449.02 297.861 449.02 300.336C449.02 302.811 448.285 305.517 446.816 308.456C445.347 311.395 443.22 312.864 440.436 312.864C439.044 312.864 437.691 312.555 436.376 311.936C435.139 311.317 433.476 311.008 431.388 311.008C429.3 311.008 427.328 311.743 425.472 313.212C423.693 314.681 422.804 316.46 422.804 318.548V342.908C422.804 344.687 422.727 346.04 422.572 346.968C422.495 347.819 422.147 348.824 421.528 349.984C420.368 351.995 417.352 353 412.48 353C408.768 353 406.1 352.343 404.476 351.028C403.239 349.945 402.543 348.283 402.388 346.04C402.388 345.267 402.388 344.145 402.388 342.676V301.96C402.388 300.181 402.427 298.867 402.504 298.016C402.659 297.088 403.007 296.083 403.548 295C404.631 292.912 407.647 291.868 412.596 291.868C417.236 291.868 420.136 292.757 421.296 294.536C422.147 295.773 422.572 297.049 422.572 298.364C422.959 297.823 423.5 297.165 424.196 296.392C424.969 295.619 426.555 294.575 428.952 293.26C431.349 291.945 433.437 291.288 435.216 291.288C437.072 291.288 438.619 291.404 439.856 291.636C441.093 291.791 442.447 292.1 443.916 292.564Z" fill="#4D49BE"/>
<path d="M163.493 163.972C166.509 163.972 168.713 164.243 170.105 164.784C171.574 165.248 172.618 166.06 173.237 167.22C174.087 168.999 174.513 171.396 174.513 174.412V219.304C174.513 227.424 171.574 234.616 165.697 240.88C159.819 247.067 152.318 250.16 143.193 250.16C138.089 250.16 133.565 249.039 129.621 246.796C126.063 244.863 123.589 243.123 122.197 241.576L121.269 240.648C118.562 237.787 117.209 235.351 117.209 233.34C117.209 231.252 118.562 228.816 121.269 226.032C123.975 223.248 126.373 221.856 128.461 221.856C130.549 221.856 132.869 223.132 135.421 225.684C137.973 228.236 140.718 229.512 143.657 229.512C146.673 229.512 149.147 228.507 151.081 226.496C153.014 224.485 153.981 221.817 153.981 218.492V175.108C153.981 170.468 154.754 167.491 156.301 166.176C158.079 164.707 160.477 163.972 163.493 163.972Z" fill="#05C3DD"/>
<path d="M210.917 248.768C203.106 248.768 196.61 245.829 191.429 239.952C186.325 233.997 183.773 226.767 183.773 218.26V197.96C183.773 196.104 183.811 194.751 183.889 193.9C184.043 193.049 184.391 192.044 184.933 190.884C186.015 188.796 189.031 187.752 193.981 187.752C199.394 187.752 202.565 189.221 203.493 192.16C203.957 193.397 204.189 195.369 204.189 198.076V218.376C204.189 221.547 205.078 224.021 206.857 225.8C208.713 227.579 211.149 228.468 214.165 228.468C217.258 228.468 219.733 227.54 221.589 225.684C223.522 223.828 224.489 221.392 224.489 218.376V197.844C224.489 196.065 224.527 194.751 224.605 193.9C224.759 192.972 225.146 191.928 225.765 190.768C226.77 188.757 229.747 187.752 234.697 187.752C239.569 187.752 242.546 188.796 243.629 190.884C244.17 192.044 244.479 193.088 244.557 194.016C244.711 194.867 244.789 196.181 244.789 197.96V239.024C244.789 240.725 244.711 242.04 244.557 242.968C244.479 243.819 244.131 244.785 243.513 245.868C242.353 247.879 239.375 248.884 234.581 248.884C229.863 248.884 226.963 247.956 225.881 246.1C225.107 244.785 224.721 243.2 224.721 241.344C224.411 241.885 223.715 242.659 222.633 243.664C221.55 244.669 220.506 245.52 219.501 246.216C216.871 247.917 214.01 248.768 210.917 248.768Z" fill="#05C3DD"/>
<path d="M254.584 243.548C253.115 242.62 252.38 241.151 252.38 239.14C252.38 237.129 253.85 234.075 256.788 229.976C257.639 228.661 258.992 228.004 260.848 228.004C262.782 228.004 265.372 228.971 268.62 230.904C271.868 232.76 274.807 233.688 277.436 233.688C282.154 233.688 284.512 232.76 284.512 230.904C284.512 229.435 281.922 228.352 276.74 227.656C271.868 226.96 267.035 225.143 262.24 222.204C259.998 220.812 258.142 218.647 256.672 215.708C255.203 212.692 254.468 209.135 254.468 205.036C254.468 192.817 262.859 186.708 279.64 186.708C285.131 186.708 290.776 188.023 296.576 190.652C299.283 191.889 300.636 193.436 300.636 195.292C300.636 197.148 299.786 199.429 298.084 202.136C296.383 204.843 294.643 206.196 292.864 206.196C291.936 206.196 290.196 205.616 287.644 204.456C285.17 203.296 282.463 202.716 279.524 202.716C274.962 202.716 272.68 203.567 272.68 205.268C272.68 207.588 275.31 209.096 280.568 209.792C285.672 210.333 290.622 211.803 295.416 214.2C297.659 215.283 299.515 217.177 300.984 219.884C302.531 222.513 303.304 225.839 303.304 229.86C303.304 233.881 302.531 237.323 300.984 240.184C299.515 242.968 297.427 245.056 294.72 246.448C289.771 248.845 283.546 250.044 276.044 250.044C268.62 250.044 261.467 247.879 254.584 243.548Z" fill="#05C3DD"/>
<path d="M344.558 208.4L337.018 207.936V223.944C337.018 226.032 337.327 227.54 337.946 228.468C338.642 229.396 339.879 229.86 341.658 229.86C343.514 229.86 344.906 229.937 345.834 230.092C346.839 230.169 347.883 230.517 348.966 231.136C350.745 232.141 351.634 234.732 351.634 238.908C351.634 243.78 350.551 246.757 348.386 247.84C347.226 248.381 346.182 248.729 345.254 248.884C344.403 248.961 343.127 249 341.426 249C333.383 249 327.274 247.183 323.098 243.548C318.922 239.913 316.834 233.765 316.834 225.104V207.936C315.365 208.168 313.779 208.284 312.078 208.284C310.377 208.284 308.946 207.627 307.786 206.312C306.703 204.997 306.162 202.755 306.162 199.584C306.162 196.413 306.355 194.132 306.742 192.74C307.129 191.271 307.67 190.227 308.366 189.608C309.603 188.603 311.15 188.1 313.006 188.1L316.834 188.564V176.616C316.834 174.837 316.873 173.523 316.95 172.672C317.105 171.821 317.491 170.893 318.11 169.888C319.115 167.955 322.093 166.988 327.042 166.988C332.301 166.988 335.433 168.419 336.438 171.28C336.825 172.517 337.018 174.489 337.018 177.196V188.564C340.421 188.255 342.973 188.1 344.674 188.1C346.453 188.1 347.767 188.177 348.618 188.332C349.546 188.409 350.59 188.757 351.75 189.376C353.761 190.381 354.766 193.359 354.766 198.308C354.766 203.18 353.722 206.157 351.634 207.24C350.474 207.781 349.43 208.129 348.502 208.284C347.651 208.361 346.337 208.4 344.558 208.4Z" fill="#05C3DD"/>
</g>
<defs>
<clipPath id="clip0_1_1568">
<rect width="1280" height="640" fill="white"/>
</clipPath>
</defs>
</svg>
