<svg width="640" height="640" viewBox="0 0 640 640" fill="none" xmlns="http://www.w3.org/2000/svg">
<g clip-path="url(#clip0_1_1535)">
<rect x="5" y="5" width="630" height="630" rx="195" fill="white" stroke="#F5F5F5" stroke-width="10"/>
<path d="M245.276 325.03C248.435 325.03 250.769 325.167 252.28 325.442C253.928 325.579 255.713 326.197 257.636 327.296C259.696 328.395 261.138 330.249 261.962 332.858C262.786 335.467 263.198 338.969 263.198 343.364C263.198 347.759 262.786 351.261 261.962 353.87C261.138 356.479 259.696 358.333 257.636 359.432C255.576 360.393 253.722 361.011 252.074 361.286C250.563 361.423 248.16 361.492 244.864 361.492H181.828V382.298H222.41C225.706 382.298 228.109 382.435 229.62 382.71C231.268 382.847 233.122 383.465 235.182 384.564C238.753 386.624 240.538 392.049 240.538 400.838C240.538 410.451 237.929 416.151 232.71 417.936C230.513 418.623 227.011 418.966 222.204 418.966H181.828V457.9C181.828 461.196 181.691 463.599 181.416 465.11C181.279 466.621 180.661 468.406 179.562 470.466C177.639 474.174 172.283 476.028 163.494 476.028C153.881 476.028 148.25 473.419 146.602 468.2C145.778 466.003 145.366 462.501 145.366 457.694V343.158C145.366 336.154 146.671 331.416 149.28 328.944C151.889 326.335 156.833 325.03 164.112 325.03H245.276Z" fill="#F277C6"/>
<path d="M312.463 475.616C298.592 475.616 287.056 470.397 277.855 459.96C268.791 449.385 264.259 436.545 264.259 421.438V385.388C264.259 382.092 264.327 379.689 264.465 378.178C264.739 376.667 265.357 374.882 266.319 372.822C268.241 369.114 273.597 367.26 282.387 367.26C292 367.26 297.631 369.869 299.279 375.088C300.103 377.285 300.515 380.787 300.515 385.594V421.644C300.515 427.275 302.094 431.669 305.253 434.828C308.549 437.987 312.875 439.566 318.231 439.566C323.724 439.566 328.119 437.918 331.415 434.622C334.848 431.326 336.565 427 336.565 421.644V385.182C336.565 382.023 336.633 379.689 336.771 378.178C337.045 376.53 337.732 374.676 338.831 372.616C340.616 369.045 345.903 367.26 354.693 367.26C363.345 367.26 368.632 369.114 370.555 372.822C371.516 374.882 372.065 376.736 372.203 378.384C372.477 379.895 372.615 382.229 372.615 385.388V458.312C372.615 461.333 372.477 463.668 372.203 465.316C372.065 466.827 371.447 468.543 370.349 470.466C368.289 474.037 363.001 475.822 354.487 475.822C346.109 475.822 340.959 474.174 339.037 470.878C337.663 468.543 336.977 465.728 336.977 462.432C336.427 463.393 335.191 464.767 333.269 466.552C331.346 468.337 329.492 469.848 327.707 471.084C323.037 474.105 317.956 475.616 312.463 475.616Z" fill="#F277C6"/>
<path d="M449.544 367.466C463.278 367.466 474.676 372.753 483.74 383.328C492.942 393.765 497.542 406.537 497.542 421.644V457.9C497.542 461.059 497.405 463.462 497.13 465.11C496.993 466.621 496.444 468.337 495.482 470.26C493.56 473.968 488.204 475.822 479.414 475.822C469.664 475.822 464.033 473.281 462.522 468.2C461.698 465.865 461.286 462.363 461.286 457.694V421.438C461.286 415.807 459.638 411.413 456.342 408.254C453.184 405.095 448.858 403.516 443.364 403.516C438.008 403.516 433.614 405.164 430.18 408.46C426.884 411.756 425.236 416.082 425.236 421.438V457.9C425.236 461.059 425.099 463.462 424.824 465.11C424.687 466.621 424.069 468.337 422.97 470.26C421.185 473.968 415.898 475.822 407.108 475.822C398.456 475.822 393.169 473.968 391.246 470.26C390.285 468.2 389.667 466.415 389.392 464.904C389.255 463.256 389.186 460.853 389.186 457.694V384.77C389.186 381.749 389.255 379.483 389.392 377.972C389.667 376.324 390.354 374.539 391.452 372.616C393.375 369.183 398.662 367.466 407.314 367.466C415.692 367.466 420.842 369.045 422.764 372.204C424.138 374.539 424.824 377.354 424.824 380.65C425.374 379.689 426.61 378.315 428.532 376.53C430.455 374.745 432.309 373.303 434.094 372.204C438.764 369.045 443.914 367.466 449.544 367.466Z" fill="#F277C6"/>
<path d="M337.604 291.012C342.94 291.012 346.072 292.481 347 295.42C347.464 296.889 347.696 298.823 347.696 301.22C347.696 303.617 347.426 305.551 346.884 307.02C346.42 308.412 345.647 309.417 344.564 310.036C342.94 310.964 340.582 311.428 337.488 311.428L330.064 310.964V342.052C330.064 344.991 329.678 347.195 328.904 348.664C328.208 350.056 327.087 350.984 325.54 351.448C324.071 351.912 322.138 352.144 319.74 352.144C317.343 352.144 315.41 351.912 313.94 351.448C312.548 350.907 311.543 350.095 310.924 349.012C310.306 347.852 309.919 346.808 309.764 345.88C309.687 344.952 309.648 343.599 309.648 341.82V311.08H305.472C303.462 310.925 302.031 310.461 301.18 309.688C299.711 308.219 298.976 305.396 298.976 301.22C298.976 294.879 301.258 291.708 305.82 291.708H309.648V285.56C309.648 279.605 311.775 274.231 316.028 269.436C320.282 264.564 326.43 262.128 334.472 262.128C336.251 262.128 337.566 262.205 338.416 262.36C339.344 262.437 340.388 262.785 341.548 263.404C343.636 264.409 344.68 267.387 344.68 272.336C344.68 276.048 344.023 278.716 342.708 280.34C341.626 281.577 339.924 282.273 337.604 282.428C336.908 282.428 335.826 282.428 334.356 282.428C331.495 282.428 330.064 283.395 330.064 285.328V291.708L337.604 291.012Z" fill="#4D49BE"/>
<path d="M350.093 321.52C350.093 312.24 353.341 304.584 359.837 298.552C366.333 292.52 373.757 289.504 382.109 289.504C390.461 289.504 397.847 292.52 404.265 298.552C410.684 304.507 413.893 312.124 413.893 321.404C413.893 327.823 412.231 333.545 408.905 338.572C405.58 343.521 401.52 347.195 396.725 349.592C392.008 351.912 387.097 353.072 381.993 353.072C376.889 353.072 371.94 351.835 367.145 349.36C362.351 346.808 358.291 343.096 354.965 338.224C351.717 333.275 350.093 327.707 350.093 321.52ZM374.337 329.872C376.812 331.728 379.325 332.656 381.877 332.656C384.429 332.656 386.981 331.689 389.533 329.756C392.085 327.823 393.361 324.961 393.361 321.172C393.361 317.383 392.163 314.56 389.765 312.704C387.368 310.848 384.777 309.92 381.993 309.92C379.209 309.92 376.619 310.887 374.221 312.82C371.824 314.753 370.625 317.615 370.625 321.404C370.625 325.116 371.863 327.939 374.337 329.872Z" fill="#4D49BE"/>
<path d="M462.916 291.592C464.385 292.056 465.584 292.868 466.512 294.028C467.517 295.111 468.02 296.889 468.02 299.364C468.02 301.839 467.285 304.545 465.816 307.484C464.347 310.423 462.22 311.892 459.436 311.892C458.044 311.892 456.691 311.583 455.376 310.964C454.139 310.345 452.476 310.036 450.388 310.036C448.3 310.036 446.328 310.771 444.472 312.24C442.693 313.709 441.804 315.488 441.804 317.576V341.936C441.804 343.715 441.727 345.068 441.572 345.996C441.495 346.847 441.147 347.852 440.528 349.012C439.368 351.023 436.352 352.028 431.48 352.028C427.768 352.028 425.1 351.371 423.476 350.056C422.239 348.973 421.543 347.311 421.388 345.068C421.388 344.295 421.388 343.173 421.388 341.704V300.988C421.388 299.209 421.427 297.895 421.504 297.044C421.659 296.116 422.007 295.111 422.548 294.028C423.631 291.94 426.647 290.896 431.596 290.896C436.236 290.896 439.136 291.785 440.296 293.564C441.147 294.801 441.572 296.077 441.572 297.392C441.959 296.851 442.5 296.193 443.196 295.42C443.969 294.647 445.555 293.603 447.952 292.288C450.349 290.973 452.437 290.316 454.216 290.316C456.072 290.316 457.619 290.432 458.856 290.664C460.093 290.819 461.447 291.128 462.916 291.592Z" fill="#4D49BE"/>
<path d="M182.493 163C185.509 163 187.713 163.271 189.105 163.812C190.574 164.276 191.618 165.088 192.237 166.248C193.087 168.027 193.513 170.424 193.513 173.44V218.332C193.513 226.452 190.574 233.644 184.697 239.908C178.819 246.095 171.318 249.188 162.193 249.188C157.089 249.188 152.565 248.067 148.621 245.824C145.063 243.891 142.589 242.151 141.197 240.604L140.269 239.676C137.562 236.815 136.209 234.379 136.209 232.368C136.209 230.28 137.562 227.844 140.269 225.06C142.975 222.276 145.373 220.884 147.461 220.884C149.549 220.884 151.869 222.16 154.421 224.712C156.973 227.264 159.718 228.54 162.657 228.54C165.673 228.54 168.147 227.535 170.081 225.524C172.014 223.513 172.981 220.845 172.981 217.52V174.136C172.981 169.496 173.754 166.519 175.301 165.204C177.079 163.735 179.477 163 182.493 163Z" fill="#05C3DD"/>
<path d="M229.917 247.796C222.106 247.796 215.61 244.857 210.429 238.98C205.325 233.025 202.773 225.795 202.773 217.288V196.988C202.773 195.132 202.811 193.779 202.889 192.928C203.043 192.077 203.391 191.072 203.933 189.912C205.015 187.824 208.031 186.78 212.981 186.78C218.394 186.78 221.565 188.249 222.493 191.188C222.957 192.425 223.189 194.397 223.189 197.104V217.404C223.189 220.575 224.078 223.049 225.857 224.828C227.713 226.607 230.149 227.496 233.165 227.496C236.258 227.496 238.733 226.568 240.589 224.712C242.522 222.856 243.489 220.42 243.489 217.404V196.872C243.489 195.093 243.527 193.779 243.605 192.928C243.759 192 244.146 190.956 244.765 189.796C245.77 187.785 248.747 186.78 253.697 186.78C258.569 186.78 261.546 187.824 262.629 189.912C263.17 191.072 263.479 192.116 263.557 193.044C263.711 193.895 263.789 195.209 263.789 196.988V238.052C263.789 239.753 263.711 241.068 263.557 241.996C263.479 242.847 263.131 243.813 262.513 244.896C261.353 246.907 258.375 247.912 253.581 247.912C248.863 247.912 245.963 246.984 244.881 245.128C244.107 243.813 243.721 242.228 243.721 240.372C243.411 240.913 242.715 241.687 241.633 242.692C240.55 243.697 239.506 244.548 238.501 245.244C235.871 246.945 233.01 247.796 229.917 247.796Z" fill="#05C3DD"/>
<path d="M273.584 242.576C272.115 241.648 271.38 240.179 271.38 238.168C271.38 236.157 272.85 233.103 275.788 229.004C276.639 227.689 277.992 227.032 279.848 227.032C281.782 227.032 284.372 227.999 287.62 229.932C290.868 231.788 293.807 232.716 296.436 232.716C301.154 232.716 303.512 231.788 303.512 229.932C303.512 228.463 300.922 227.38 295.74 226.684C290.868 225.988 286.035 224.171 281.24 221.232C278.998 219.84 277.142 217.675 275.672 214.736C274.203 211.72 273.468 208.163 273.468 204.064C273.468 191.845 281.859 185.736 298.64 185.736C304.131 185.736 309.776 187.051 315.576 189.68C318.283 190.917 319.636 192.464 319.636 194.32C319.636 196.176 318.786 198.457 317.084 201.164C315.383 203.871 313.643 205.224 311.864 205.224C310.936 205.224 309.196 204.644 306.644 203.484C304.17 202.324 301.463 201.744 298.524 201.744C293.962 201.744 291.68 202.595 291.68 204.296C291.68 206.616 294.31 208.124 299.568 208.82C304.672 209.361 309.622 210.831 314.416 213.228C316.659 214.311 318.515 216.205 319.984 218.912C321.531 221.541 322.304 224.867 322.304 228.888C322.304 232.909 321.531 236.351 319.984 239.212C318.515 241.996 316.427 244.084 313.72 245.476C308.771 247.873 302.546 249.072 295.044 249.072C287.62 249.072 280.467 246.907 273.584 242.576Z" fill="#05C3DD"/>
<path d="M363.558 207.428L356.018 206.964V222.972C356.018 225.06 356.327 226.568 356.946 227.496C357.642 228.424 358.879 228.888 360.658 228.888C362.514 228.888 363.906 228.965 364.834 229.12C365.839 229.197 366.883 229.545 367.966 230.164C369.745 231.169 370.634 233.76 370.634 237.936C370.634 242.808 369.551 245.785 367.386 246.868C366.226 247.409 365.182 247.757 364.254 247.912C363.403 247.989 362.127 248.028 360.426 248.028C352.383 248.028 346.274 246.211 342.098 242.576C337.922 238.941 335.834 232.793 335.834 224.132V206.964C334.365 207.196 332.779 207.312 331.078 207.312C329.377 207.312 327.946 206.655 326.786 205.34C325.703 204.025 325.162 201.783 325.162 198.612C325.162 195.441 325.355 193.16 325.742 191.768C326.129 190.299 326.67 189.255 327.366 188.636C328.603 187.631 330.15 187.128 332.006 187.128L335.834 187.592V175.644C335.834 173.865 335.873 172.551 335.95 171.7C336.105 170.849 336.491 169.921 337.11 168.916C338.115 166.983 341.093 166.016 346.042 166.016C351.301 166.016 354.433 167.447 355.438 170.308C355.825 171.545 356.018 173.517 356.018 176.224V187.592C359.421 187.283 361.973 187.128 363.674 187.128C365.453 187.128 366.767 187.205 367.618 187.36C368.546 187.437 369.59 187.785 370.75 188.404C372.761 189.409 373.766 192.387 373.766 197.336C373.766 202.208 372.722 205.185 370.634 206.268C369.474 206.809 368.43 207.157 367.502 207.312C366.651 207.389 365.337 207.428 363.558 207.428Z" fill="#05C3DD"/>
<circle cx="382" cy="321.028" r="31.5" fill="#4D49BE"/>
<path d="M382.062 334.701C376.635 334.701 372.934 332.098 370.714 329.495C369.974 328.628 368.741 328.628 367.877 329.247C367.014 329.991 367.014 331.231 367.631 332.098C370.467 335.321 375.154 338.668 382.062 338.668C388.845 338.668 393.532 335.321 396.369 332.098C396.986 331.231 396.986 329.991 396.123 329.247C395.259 328.628 394.026 328.628 393.286 329.495C391.189 332.098 387.365 334.701 382.062 334.701Z" fill="white"/>
<path d="M372.194 311.893C370.591 311.893 369.234 313.257 369.234 314.868C369.234 316.604 370.591 317.843 372.194 317.843C373.798 317.843 375.154 316.604 375.154 314.868C375.154 313.257 373.798 311.893 372.194 311.893Z" fill="white"/>
<path d="M394.889 314.868C394.889 313.257 393.532 311.893 391.929 311.893C390.326 311.893 388.969 313.257 388.969 314.868C388.969 316.604 390.326 317.843 391.929 317.843C393.532 317.843 394.889 316.604 394.889 314.868Z" fill="white"/>
</g>
<defs>
<clipPath id="clip0_1_1535">
<rect width="640" height="640" fill="white"/>
</clipPath>
</defs>
</svg>
