<svg width="412" height="412" fill="none" xmlns="http://www.w3.org/2000/svg"><path fill-rule="evenodd" clip-rule="evenodd" d="M244.286 361.228a1.498 1.498 0 0 1-.039 1.605l-7.351 11a1.5 1.5 0 0 1-2.289.247l-9.648-9.308a1.5 1.5 0 0 1 .892-2.572l17-1.693a1.501 1.501 0 0 1 1.435.721Zm-14.911 3.636 6.024 5.811 4.589-6.868-10.613 1.057Z" fill="#DCDADA"/><path fill-rule="evenodd" clip-rule="evenodd" d="M20.483 138.278a1.499 1.499 0 0 1-1.26 1.705l-10 1.5a1.5 1.5 0 1 1-.446-2.966l10-1.5a1.5 1.5 0 0 1 1.706 1.261Z" fill="#E8E5E5"/><path fill-rule="evenodd" clip-rule="evenodd" d="M113.636 235.521a1.499 1.499 0 0 1-.157 2.115l-14.5 12.5a1.5 1.5 0 1 1-1.958-2.272l14.5-12.5a1.499 1.499 0 0 1 2.115.157Z" fill="#DCDADA"/><path fill-rule="evenodd" clip-rule="evenodd" d="M327.721 107.026a1.5 1.5 0 0 1 1.753 1.195l3.5 18.5a1.5 1.5 0 0 1-2.948.558l-3.5-18.5a1.5 1.5 0 0 1 1.195-1.753Z" fill="#E7E5E5"/><path fill-rule="evenodd" clip-rule="evenodd" d="M217.764 49.15a1.5 1.5 0 0 1 2.086-.386l16 11a1.5 1.5 0 0 1-1.7 2.472l-16-11a1.5 1.5 0 0 1-.386-2.086Z" fill="#D8D5D5"/><path fill-rule="evenodd" clip-rule="evenodd" d="M69.5 9a1.5 1.5 0 0 1 1.5 1.5v7a1.5 1.5 0 0 1-3 0v-7A1.5 1.5 0 0 1 69.5 9Z" fill="#E7E5E5"/><path fill-rule="evenodd" clip-rule="evenodd" d="M136 39a8 8 0 1 0 0-16 8 8 0 0 0 0 16Zm0 3c6.075 0 11-4.925 11-11s-4.925-11-11-11-11 4.925-11 11 4.925 11 11 11Z" fill="#E0DDDD"/><path fill-rule="evenodd" clip-rule="evenodd" d="M382.047 171.037a8.5 8.5 0 0 0-6.01 10.41 1.5 1.5 0 0 1-2.898.777c-1.644-6.135 1.997-12.441 8.132-14.085 6.135-1.644 12.441 1.997 14.085 8.132a1.5 1.5 0 0 1-2.898.776 8.5 8.5 0 0 0-10.411-6.01Z" fill="#D8D5D5"/><path fill-rule="evenodd" clip-rule="evenodd" d="M352.391 24.552A1.5 1.5 0 0 1 353.5 26v24a1.5 1.5 0 0 1-1.5 1.5h-14a1.501 1.501 0 0 1-1.296-2.256l14-24a1.5 1.5 0 0 1 1.687-.692ZM340.612 48.5h9.888V31.548L340.612 48.5Z" fill="#DCDADA"/><path fill-rule="evenodd" clip-rule="evenodd" d="M191 252.5a1.5 1.5 0 0 1 1.5 1.5v18a1.5 1.5 0 0 1-1.5 1.5h-18a1.5 1.5 0 0 1 0-3h16.5V254a1.5 1.5 0 0 1 1.5-1.5Z" fill="#E0DDDD"/><path d="M154 104a4 4 0 1 1-8 0 4 4 0 0 1 8 0Z" fill="#E8E5E5"/><path fill-rule="evenodd" clip-rule="evenodd" d="M91.762 162.943a3 3 0 0 1-.85 2.714l-11.584 11.305a3 3 0 0 1-5.095-2.112l-.188-16.185a3 3 0 0 1 4.148-2.806l11.772 4.88a3 3 0 0 1 1.797 2.204Zm-2.946.567-11.771-4.88.188 16.185 11.583-11.305Z" fill="#E7E5E5"/><path fill-rule="evenodd" clip-rule="evenodd" d="M227.203 139.666a3.002 3.002 0 0 1-.37-3.546l5.622-9.542a3 3 0 0 1 4.8-.501l7.542 8.257a3.002 3.002 0 0 1 .37 3.546l-5.622 9.543a3 3 0 0 1-4.8.5l-7.542-8.257Zm2.215-2.023 5.622-9.543 7.542 8.257-5.622 9.543-7.542-8.257Z" fill="#E0DDDD"/><path d="M172.863 190.813a2 2 0 0 1 2.54-1.245l3.784 1.295a2 2 0 0 1 1.245 2.54l-1.295 3.784a2 2 0 0 1-2.54 1.245l-3.784-1.295a2 2 0 0 1-1.245-2.54l1.295-3.784Z" fill="#D8D5D5"/><path d="M298.105 190.404a1 1 0 0 1-1.724.168l-2.015-2.817a1 1 0 0 1 .716-1.577l3.447-.337a1 1 0 0 1 1.008 1.409l-1.432 3.154Z" fill="#E8E5E5"/><path fill-rule="evenodd" clip-rule="evenodd" d="M43.922 282.69a3 3 0 0 1 2.604-3.349l3.97-.496a3 3 0 0 1 3.348 2.604l2.234 17.861a3 3 0 0 1-2.604 3.349l-3.97.496a3 3 0 0 1-3.348-2.604l-2.234-17.861Zm6.946-.869 2.233 17.861-3.969.497-2.233-17.861 3.969-.497Z" fill="#E8E5E5"/><path d="M23 377a3 3 0 1 1-6 0 3 3 0 0 1 6 0Z" fill="#D8D5D5"/><path fill-rule="evenodd" clip-rule="evenodd" d="M363 371a4 4 0 1 0 0-8 4 4 0 0 0 0 8Zm0 3a7 7 0 1 0 0-14 7 7 0 0 0 0 14Z" fill="#E0DDDD"/><path fill-rule="evenodd" clip-rule="evenodd" d="M325.901 322.979a1.5 1.5 0 0 1 2.12-.078l14 13a1.5 1.5 0 1 1-2.042 2.198l-14-13a1.5 1.5 0 0 1-.078-2.12Z" fill="#D8D5D5"/><path fill-rule="evenodd" clip-rule="evenodd" d="M292.459 249.708a1.5 1.5 0 0 1 1.114-1.026l8.792-1.924a1.497 1.497 0 0 1 1.44.467l6.107 6.853c.348.391.467.936.314 1.437l-2.685 8.777c-.159.518-.585.91-1.114 1.026l-8.792 1.925a1.5 1.5 0 0 1-1.44-.468l-6.107-6.853a1.498 1.498 0 0 1-.314-1.436l2.685-8.778Zm2.612 1.717-2.182 7.131 4.962 5.568 7.078-1.549 2.182-7.131-4.962-5.568-7.078 1.549Z" fill="#DCDADA"/><path d="M244.063 296.8a1 1 0 0 1 1.703-.48l2.007 2.111a1 1 0 0 1-.453 1.652l-2.616.737a1 1 0 0 1-1.249-1.171l.608-2.849ZM129.439 340.316a1 1 0 0 1 .948-1.316h3.892a1 1 0 0 1 .949.684l1.333 4a1 1 0 0 1-.948 1.316h-3.892a1 1 0 0 1-.949-.684l-1.333-4Z" fill="#E7E5E5"/><path fill-rule="evenodd" clip-rule="evenodd" d="M390.033 253.912c.408.388.565.973.406 1.513l-6.5 22a1.502 1.502 0 0 1-2.931-.268l-2-19a1.5 1.5 0 0 1 .993-1.571l8.5-3a1.5 1.5 0 0 1 1.532.326Zm-7.917 5.108 1.085 10.313 3.528-11.941-4.613 1.628Z" fill="#E7E5E5"/><path fill-rule="evenodd" clip-rule="evenodd" d="M18.283 76.3a1.5 1.5 0 0 1 .167-2.115l9.25-7.902a1.5 1.5 0 0 1 2.115.166l7.902 9.251a1.5 1.5 0 0 1-.166 2.115L28.3 85.717a1.5 1.5 0 0 1-2.115-.167l-7.902-9.25Zm3.256-.808 5.953 6.97 6.97-5.954-5.954-6.97-6.97 5.954Z" fill="#DCDADA"/></svg>